<svg width="80" height="80" viewBox="0 0 80 80" fill="none" xmlns="http://www.w3.org/2000/svg">
<path d="M55.5595 63.7038L45.8603 73.403C42.6273 76.636 37.3687 76.636 34.1357 73.403L6.59467 45.862C3.36162 42.629 3.36162 37.3704 6.59467 34.1374L16.2929 24.4382L55.5595 63.7038Z" fill="url(#paint0_linear_1183_4500)"/>
<path d="M22.9301 62.2395L17.8741 57.1455L6.59534 45.8668C3.36064 42.6321 3.36064 37.3769 6.59534 34.1422L34.133 6.59509C37.3677 3.36039 42.6229 3.36039 45.8576 6.59509L57.1363 17.8738L22.5317 52.4785C20.1223 55.3148 20.2551 59.555 22.9301 62.23V62.2395Z" fill="url(#paint1_linear_1183_4500)"/>
<path d="M73.4046 45.8667L72.5983 46.673C72.1051 47.1663 71.4411 47.4414 70.7486 47.4414H54.4518C53.1522 47.4414 51.9096 46.9292 50.9894 46.009L27.5118 22.5314C24.685 20.1314 20.4353 20.2548 17.7603 22.9298L22.8542 17.8738L34.1329 6.60452C37.3771 3.36034 42.6228 3.36034 45.867 6.60452L73.4046 34.1421C76.6393 37.3768 76.6393 42.632 73.4046 45.8667Z" fill="url(#paint2_linear_1183_4500)"/>
<path d="M40.0047 4.45123C42.1391 4.45123 44.1596 5.28599 45.6678 6.80374L73.2054 34.3414C74.7137 35.8496 75.5485 37.8606 75.5485 40.0045C75.5485 42.1483 74.7137 44.1498 73.2054 45.6675L72.3991 46.4739C71.9628 46.9102 71.3747 47.1568 70.7486 47.1568H54.4518C53.2186 47.1568 52.0613 46.6731 51.1886 45.8098L27.692 22.3132C26.345 21.1654 24.6186 20.5394 22.8447 20.5394C21.8582 20.5394 20.9001 20.7291 20.0179 21.0895L23.0534 18.073L34.3322 6.80374C35.8499 5.28599 37.8609 4.45123 39.9952 4.45123M40.0047 4.16666C37.8799 4.16666 35.755 4.98245 34.1329 6.60454L22.8542 17.8738L17.7982 22.8919C19.2021 21.5069 21.0234 20.8239 22.8447 20.8239C24.5047 20.8239 26.1648 21.3931 27.5118 22.5314L50.9894 46.009C51.9096 46.9292 53.1522 47.4414 54.4518 47.4414H70.7486C71.4411 47.4414 72.1051 47.1663 72.5983 46.6731L73.4046 45.8668C76.6393 42.6321 76.6393 37.3769 73.4046 34.1422L45.867 6.60454C44.2449 4.98245 42.1201 4.16666 40.0047 4.16666ZM17.7982 22.8824C17.7982 22.8824 17.7697 22.9108 17.7603 22.9203L17.7982 22.8824Z" fill="#00CBFF"/>
<path d="M54.5656 47.4319H70.6917C71.0237 47.4319 71.3462 47.3655 71.6498 47.2517L64.2602 39.8622C63.084 38.6859 61.1678 38.6859 59.9916 39.8622L52.7633 47.0904C53.3325 47.3086 53.9396 47.4319 54.5656 47.4319Z" fill="#00CBFF"/>
<defs>
<linearGradient id="paint0_linear_1183_4500" x1="49.6704" y1="73.3863" x2="25.5479" y2="49.2542" gradientUnits="userSpaceOnUse">
<stop offset="0.15" stop-color="#11E2D5"/>
<stop offset="0.4" stop-color="#10DFD3"/>
<stop offset="0.58" stop-color="#0ED6CF"/>
<stop offset="0.72" stop-color="#0BC7C8"/>
<stop offset="0.86" stop-color="#06B1BF"/>
<stop offset="0.98" stop-color="#0196B2"/>
<stop offset="1" stop-color="#0091B0"/>
</linearGradient>
<linearGradient id="paint1_linear_1183_4500" x1="35.9353" y1="27.0183" x2="11.8126" y2="51.141" gradientUnits="userSpaceOnUse">
<stop offset="0.14" stop-color="#0044AD"/>
<stop offset="0.21" stop-color="#0068BC"/>
<stop offset="0.28" stop-color="#0087C8"/>
<stop offset="0.35" stop-color="#009ED1"/>
<stop offset="0.42" stop-color="#00ABD7"/>
<stop offset="0.48" stop-color="#00B0D9"/>
<stop offset="0.51" stop-color="#02B5D9"/>
<stop offset="0.69" stop-color="#0ACCD9"/>
<stop offset="0.85" stop-color="#10D9D9"/>
<stop offset="1" stop-color="#12DEDA"/>
</linearGradient>
<linearGradient id="paint2_linear_1183_4500" x1="76.1176" y1="25.804" x2="25.3869" y2="25.804" gradientUnits="userSpaceOnUse">
<stop stop-color="#0073FF"/>
<stop offset="1" stop-color="#00C3FF"/>
</linearGradient>
</defs>
</svg>
